<?xml version="1.0" encoding="UTF-8" standalone="no"?>
<svg width="20px" height="20px" viewBox="0 0 20 20" version="1.1" xmlns="http://www.w3.org/2000/svg" xmlns:xlink="http://www.w3.org/1999/xlink">
    <!-- Generator: sketchtool 39.1 (31720) - http://www.bohemiancoding.com/sketch -->
    <title>75E11B2A-40E8-49E7-91AA-D45611700551</title>
    <desc>Created with sketchtool.</desc>
    <defs></defs>
    <g id="Desktop" stroke="none" stroke-width="1" fill="none" fill-rule="evenodd">
        <g transform="translate(-15.000000, -264.000000)" id="Menu" fill="#FFFFFF">
            <g transform="translate(0.000000, 31.000000)">
                <g id="Icon_My_deals" transform="translate(15.000000, 233.000000)">
                    <rect id="Rectangle-14" x="4" y="8" width="12" height="8" rx="1"></rect>
                    <path d="M10,11 C11.1019741,11 12,10.1026707 12,9 C12,7.8980259 11.1026707,7 10,7 C8.8980259,7 8,7.89732935 8,9 C8,10.1019741 8.89732935,11 10,11 Z M10,5 C12.209139,5 14,6.79535615 14,9 C14,11.209139 12.2046438,13 10,13 C7.790861,13 6,11.2046438 6,9 C6,6.790861 7.79535615,5 10,5 Z" id="Rectangle-14-Copy"></path>
                </g>
            </g>
        </g>
    </g>
</svg>