<?xml version="1.0" encoding="UTF-8" standalone="no"?>
<svg width="20px" height="20px" viewBox="0 0 20 20" version="1.1" xmlns="http://www.w3.org/2000/svg" xmlns:xlink="http://www.w3.org/1999/xlink">
    <!-- Generator: sketchtool 39.1 (31720) - http://www.bohemiancoding.com/sketch -->
    <title>D7AAB629-EABF-41E6-98FC-4849DE3B6D18</title>
    <desc>Created with sketchtool.</desc>
    <defs></defs>
    <g id="Desktop" stroke="none" stroke-width="1" fill="none" fill-rule="evenodd">
        <g transform="translate(-15.000000, -215.000000)" id="Menu" fill="#FFFFFF">
            <g transform="translate(0.000000, 31.000000)">
                <g id="Icon_check_credit" transform="translate(15.000000, 184.000000)">
                    <path d="M13.4987634,4 L5.00247329,4 C4.45576096,4 4,4.44882258 4,5.00247329 L4,14.9975267 C4,15.544239 4.44882258,16 5.00247329,16 L14.9975267,16 C15.544239,16 16,15.5511774 16,14.9975267 L16,8.00123665 L16,11 L14,11 L14,13.0029699 C14,13.5536144 13.5469637,14 13.0029699,14 L6.99703014,14 C6.4463856,14 6,13.5469637 6,13.0029699 L6,6.99703014 C6,6.4463856 6.45303631,6 6.99703014,6 L12,6 L12,4 L13.4987634,4 Z" id="Combined-Shape"></path>
                    <path d="M12.3793008,10.6114404 L9.37930079,10.6114404 L9.37930079,12.6114404 L13.3793008,12.6114404 L14.3793008,12.6114404 L14.3793008,2.6114404 L12.3793008,2.6114404 L12.3793008,10.6114404 Z" id="Combined-Shape" transform="translate(11.879301, 7.611440) rotate(-315.000000) translate(-11.879301, -7.611440) "></path>
                </g>
            </g>
        </g>
    </g>
</svg>